<?xml version="1.0" standalone="no"?>
<!DOCTYPE svg PUBLIC "-//W3C//DTD SVG 20010904//EN"
 "http://www.w3.org/TR/2001/REC-SVG-20010904/DTD/svg10.dtd">
<svg version="1.0" xmlns="http://www.w3.org/2000/svg"
 width="300.000000pt" height="401.000000pt" viewBox="0 0 300.000000 401.000000"
 preserveAspectRatio="xMidYMid meet">
<metadata>
Created by potrace 1.10, written by Peter Selinger 2001-2011
</metadata>
<g transform="translate(0.000000,401.000000) scale(0.100000,-0.100000)"
fill="#000000" stroke="none">
<path d="M1724 3956 c11 -35 26 -39 26 -7 0 17 -18 41 -31 41 -3 0 -1 -15 5
-34z"/>
<path d="M985 3869 c-11 -17 1 -21 41 -13 32 6 35 8 19 15 -29 11 -53 11 -60
-2z"/>
<path d="M1528 3854 c-4 -6 -12 -24 -18 -40 l-11 -29 21 21 c12 12 20 30 18
40 -2 12 -6 15 -10 8z"/>
<path d="M1685 3822 c-15 -15 0 -19 37 -10 57 12 60 18 10 16 -23 -1 -44 -4
-47 -6z"/>
<path d="M1426 3603 c-1 -2 -21 -4 -44 -5 -23 -1 -42 -6 -42 -11 0 -5 -10 -7
-23 -3 -42 10 -147 -34 -147 -63 0 -16 38 -8 43 9 4 16 12 18 48 15 31 -2 38
-1 24 5 -19 8 -18 9 5 11 14 1 36 3 50 5 14 1 50 4 80 7 30 3 63 8 72 12 9 4
27 1 40 -6 12 -7 45 -13 73 -14 72 -3 173 -27 149 -36 -17 -6 -16 -8 9 -18 16
-6 37 -11 47 -11 10 0 21 -4 24 -9 3 -4 -7 -6 -22 -4 -20 2 -17 0 12 -12 22
-8 42 -13 44 -10 3 3 14 -2 24 -12 10 -9 18 -13 18 -9 0 4 14 -2 30 -14 17
-12 27 -26 24 -32 -4 -7 -2 -8 5 -4 7 5 24 5 38 2 21 -6 24 -11 18 -34 -6 -26
-6 -26 9 -7 9 11 16 14 16 8 0 -7 10 -13 23 -14 12 0 16 -3 10 -6 -7 -2 -13
-9 -13 -14 0 -6 4 -8 9 -5 15 10 43 -6 37 -20 -3 -9 4 -16 19 -20 13 -3 22
-11 19 -18 -3 -7 7 -19 21 -26 23 -13 25 -16 10 -26 -14 -11 -14 -12 2 -18 15
-6 15 -8 3 -16 -13 -8 -12 -10 3 -10 10 0 17 -8 17 -20 0 -11 7 -23 15 -26 8
-4 12 -11 8 -17 -4 -6 0 -8 10 -4 12 4 24 -9 47 -50 18 -31 39 -63 46 -71 8
-8 24 -33 36 -56 11 -22 25 -44 31 -47 5 -4 7 -11 3 -17 -3 -6 -3 -13 2 -16 5
-3 14 -31 21 -63 7 -32 17 -66 22 -75 5 -10 12 -34 15 -55 3 -20 10 -47 15
-60 5 -15 5 -23 -2 -23 -6 0 -7 -6 -3 -12 5 -7 9 -19 11 -28 6 -39 32 -149 43
-180 6 -19 13 -45 16 -57 2 -12 9 -32 14 -45 14 -31 3 64 -16 150 -8 35 -11
75 -8 90 4 18 3 23 -4 14 -7 -11 -10 -10 -16 3 -9 24 -8 27 6 19 8 -5 9 -2 5
10 -4 10 -7 25 -7 34 0 13 -2 14 -8 4 -6 -9 -12 0 -20 26 -16 52 -14 64 4 27
12 -25 14 -26 9 -5 -4 14 -9 37 -12 53 -3 15 -10 27 -15 27 -5 0 -6 5 -3 10 7
12 -16 70 -27 70 -5 0 -6 10 -4 22 6 45 -82 210 -165 308 -22 26 -46 69 -54
96 -10 33 -25 57 -45 72 -16 13 -30 28 -30 34 0 17 -70 76 -117 98 -23 11 -66
35 -95 53 -84 53 -190 100 -264 117 -49 11 -242 29 -248 23z"/>
<path d="M553 3572 c-13 -2 -23 -8 -23 -13 0 -14 42 -10 70 6 l25 14 -25 -2
c-14 -1 -35 -3 -47 -5z"/>
<path d="M1142 3466 c-14 -18 -25 -23 -42 -19 -16 4 -21 3 -16 -6 5 -7 -3 -13
-23 -17 -17 -4 -36 -13 -43 -22 -10 -12 -10 -14 0 -8 6 4 12 2 12 -3 0 -6 -4
-11 -10 -11 -13 0 -97 -91 -137 -148 -44 -65 -118 -214 -143 -292 -11 -36 -26
-81 -32 -100 -6 -19 -12 -49 -13 -66 -2 -17 -6 -40 -9 -51 -17 -55 -31 -130
-22 -122 12 11 49 124 53 164 3 22 9 44 14 50 5 5 9 18 9 30 0 16 2 17 10 5 6
-9 10 -10 10 -3 0 6 -4 15 -10 18 -5 3 -10 11 -10 16 0 6 5 7 11 3 8 -4 9 1 4
16 -5 15 -4 20 4 16 7 -4 9 -1 5 8 -3 8 0 23 6 33 11 17 11 17 6 -1 -6 -16 -4
-17 9 -6 12 10 13 16 3 28 -11 13 -10 15 5 9 10 -4 16 -3 13 2 -3 5 1 14 9 21
8 7 15 17 15 23 0 6 -7 1 -16 -11 -8 -12 -20 -20 -25 -16 -6 4 -1 16 12 30 12
13 20 27 16 30 -3 3 3 16 14 27 11 12 17 27 14 35 -3 8 0 10 7 6 8 -5 9 -1 4
12 -4 10 -4 15 0 12 8 -9 44 35 44 52 0 11 34 57 78 104 23 25 59 37 87 30 20
-5 25 0 36 33 7 21 12 41 11 46 -1 4 2 7 6 7 5 0 18 14 30 30 27 36 22 41 -6
6z"/>
<path d="M1650 3439 c0 -7 -12 -9 -29 -7 -17 2 -28 2 -26 -2 2 -3 -17 -12 -41
-19 -25 -8 -48 -19 -50 -26 -3 -7 -13 -11 -24 -8 -10 3 -21 0 -24 -6 -4 -6 4
-9 21 -7 16 2 37 4 48 5 15 1 17 3 6 10 -10 6 4 14 45 25 108 31 110 32 91 39
-10 4 -17 2 -17 -4z"/>
<path d="M1127 3329 c10 -10 7 -15 -13 -26 -15 -7 -30 -10 -35 -7 -5 3 -9 0
-9 -5 0 -15 23 -14 38 1 7 7 12 8 12 4 0 -5 7 -3 15 4 20 16 19 26 -2 35 -14
5 -15 4 -6 -6z"/>
<path d="M1552 3319 c6 -4 -2 -14 -19 -22 -30 -16 -62 -47 -48 -47 4 0 13 7
19 15 6 8 37 26 68 39 l58 23 -44 -1 c-24 -1 -39 -4 -34 -7z"/>
<path d="M1690 3309 c-14 -6 -35 -8 -47 -6 -12 2 -20 0 -17 -4 3 -5 15 -9 27
-8 30 1 107 27 82 27 -11 1 -31 -4 -45 -9z"/>
<path d="M1045 3299 c-6 -9 -17 -18 -24 -21 -13 -4 -13 -5 0 -10 22 -9 42 6
37 28 -3 17 -5 17 -13 3z"/>
<path d="M1333 3290 c-28 -12 -30 -25 -3 -27 11 -1 25 7 30 18 12 21 7 22 -27
9z"/>
<path d="M1340 3242 c-53 -19 -55 -20 -48 -27 3 -3 29 6 59 19 62 28 56 32
-11 8z"/>
<path d="M1550 3239 c-25 -5 -61 -11 -80 -12 -38 -4 -120 -37 -120 -50 0 -4
14 0 31 9 18 9 70 22 117 30 47 7 90 18 96 24 5 5 8 10 6 9 -3 -1 -25 -5 -50
-10z"/>
<path d="M1048 3223 c-30 -15 -35 -28 -15 -37 8 -4 9 -8 1 -11 -6 -3 -20 -13
-30 -21 -18 -15 -18 -15 6 -9 14 3 35 7 48 9 12 2 26 7 30 11 4 4 -3 4 -15 1
-13 -4 -23 -3 -23 3 0 5 -3 16 -6 25 -5 13 1 16 25 16 17 0 31 4 31 9 0 16
-24 18 -52 4z"/>
<path d="M1195 3151 c-3 -6 -11 -8 -17 -5 -7 4 -8 2 -4 -4 9 -15 -6 -16 -20
-2 -6 6 -10 0 -11 -18 -1 -15 1 -21 4 -14 4 10 8 10 19 1 8 -6 11 -16 7 -22
-4 -6 -1 -7 6 -2 9 5 10 10 2 18 -9 9 -6 16 11 29 13 9 20 19 16 23 -3 3 -9 1
-13 -4z"/>
<path d="M1727 3133 c-4 -4 -25 -6 -47 -6 -44 1 -47 -4 -25 -33 14 -18 14 -18
8 4 -6 26 4 28 29 5 13 -11 18 -12 18 -3 0 9 10 11 33 8 17 -3 52 -2 77 2 45
7 45 8 -18 9 -39 1 -61 5 -57 11 7 11 -8 14 -18 3z"/>
<path d="M2983 3111 c-9 -15 -9 -23 2 -37 13 -17 14 -16 15 19 0 43 -1 44 -17
18z"/>
<path d="M1598 3091 c12 -12 22 -28 22 -35 0 -7 9 -21 20 -31 22 -20 28 -51 8
-39 -9 5 -8 2 1 -9 8 -10 16 -15 19 -12 10 9 81 -67 75 -80 -2 -7 5 -16 16
-20 12 -3 19 -11 16 -16 -4 -5 -3 -14 1 -20 4 -8 9 -7 14 2 5 8 1 22 -11 37
-10 13 -16 29 -12 35 3 5 1 7 -4 4 -6 -4 -19 6 -29 21 -9 15 -26 33 -36 40
-10 7 -18 18 -18 24 0 6 -13 26 -30 45 -16 18 -30 38 -30 43 0 5 -10 15 -22
21 l-23 11 23 -21z"/>
<path d="M1028 3063 c2 -13 -1 -23 -7 -23 -22 0 -26 -2 -43 -17 -10 -9 -18
-22 -18 -29 0 -7 -7 -19 -15 -27 -20 -20 -57 -117 -51 -133 3 -8 0 -11 -10 -7
-11 4 -14 -4 -12 -41 3 -43 14 -61 22 -33 29 94 41 130 61 172 13 28 26 58 29
67 3 10 19 26 36 36 16 10 27 21 24 24 -3 4 4 9 15 13 31 9 26 25 -7 22 -23
-2 -28 -6 -24 -24z"/>
<path d="M1834 3026 c10 -6 32 -22 47 -34 16 -13 29 -21 29 -17 0 14 -59 62
-76 62 -17 0 -17 -1 0 -11z"/>
<path d="M1890 3033 c0 -7 4 -13 8 -13 5 0 15 -12 23 -27 14 -28 51 -64 58
-57 2 2 -6 14 -17 26 -11 13 -32 37 -46 53 -14 17 -26 24 -26 18z"/>
<path d="M2717 2984 c-10 -11 3 -24 24 -24 10 0 19 7 19 15 0 15 -31 21 -43 9z"/>
<path d="M822 2935 c-16 -55 -14 -67 4 -26 8 19 13 42 11 50 -2 9 -9 -2 -15
-24z"/>
<path d="M1806 2942 c-5 -9 14 -31 42 -47 11 -6 12 -3 4 12 -15 27 -39 46 -46
35z"/>
<path d="M2036 2867 c3 -9 10 -17 16 -17 5 0 6 -5 2 -12 -4 -6 -3 -8 3 -5 13
8 46 -28 72 -80 12 -24 24 -43 27 -43 3 0 2 6 -1 13 -4 6 1 3 10 -8 8 -11 11
-21 6 -23 -9 -3 2 -39 34 -107 30 -64 84 -266 106 -395 19 -109 24 -169 23
-310 -1 -96 -6 -209 -13 -250 -13 -83 -49 -172 -86 -210 -22 -24 -24 -35 -34
-220 -9 -179 -15 -220 -37 -274 -5 -14 -4 -17 4 -12 16 10 15 -10 -3 -70 -20
-67 -18 -77 5 -26 11 24 19 46 19 50 -1 4 -1 16 0 27 2 19 2 19 12 2 7 -12 8
-44 4 -84 -14 -144 -15 -157 -6 -148 10 10 33 112 35 155 0 14 6 29 11 33 6 6
6 10 -2 14 -7 2 -13 16 -13 30 0 16 -7 27 -20 30 -11 3 -20 9 -20 14 0 13 14
11 28 -3 17 -17 22 -7 27 58 3 41 2 53 -4 39 -5 -11 -10 -36 -11 -55 0 -30 -2
-32 -11 -17 -8 13 -7 35 2 75 6 31 12 85 13 119 1 33 4 56 8 50 5 -7 8 -1 8
14 0 14 -5 30 -12 37 -7 7 -8 12 -2 12 6 0 11 18 12 40 2 22 -2 40 -7 40 -7 0
-7 9 1 25 6 14 14 25 18 25 15 0 73 137 85 198 4 17 11 32 16 32 6 0 10 32 9
78 -1 42 -1 91 0 107 2 30 2 30 10 5 6 -20 8 -14 9 28 1 29 -3 51 -7 48 -4 -2
-8 37 -8 87 -1 51 -4 108 -7 127 -3 19 -9 71 -12 115 -6 87 -16 125 -50 195
-52 107 -54 113 -42 131 9 14 5 23 -21 50 -17 18 -29 35 -26 38 3 3 9 -1 14
-9 6 -8 10 -11 10 -7 0 14 -78 143 -94 157 -9 7 -16 18 -16 24 0 6 -8 20 -17
31 -14 18 -15 19 -9 1 6 -16 4 -17 -9 -6 -9 7 -13 20 -10 29 5 13 4 13 -6 4
-10 -10 -17 -9 -31 4 -18 16 -18 16 -12 0z"/>
<path d="M2159 2828 c12 -20 28 -42 36 -48 24 -20 -11 43 -36 66 l-21 19 21
-37z"/>
<path d="M2992 2822 c-4 -44 -60 -147 -106 -194 -26 -27 -43 -48 -38 -48 15 0
102 93 128 137 19 33 24 54 21 86 -2 23 -4 32 -5 19z"/>
<path d="M306 2766 c-44 -78 -46 -92 -6 -46 27 31 55 98 46 107 -2 2 -20 -25
-40 -61z"/>
<path d="M2357 2766 c-4 -9 -3 -16 2 -16 7 0 13 -16 36 -95 2 -5 4 1 4 15 0
38 -34 117 -42 96z"/>
<path d="M2300 2745 c0 -13 33 -75 39 -75 5 0 3 13 -5 30 -9 16 -13 34 -10 38
3 5 -1 9 -9 9 -8 0 -15 -1 -15 -2z"/>
<path d="M831 2703 c-14 -48 -14 -60 -2 -47 6 5 12 21 15 36 2 15 7 32 11 38
3 5 2 10 -4 10 -6 0 -15 -17 -20 -37z"/>
<path d="M2240 2715 c0 -12 63 -105 68 -100 3 3 0 11 -6 17 -7 7 -12 19 -12
28 0 9 -11 26 -25 38 -14 12 -25 20 -25 17z"/>
<path d="M2354 2577 c24 -88 47 -147 57 -147 4 0 1 25 -7 55 -8 31 -12 59 -10
64 3 5 -5 25 -19 45 -14 20 -25 41 -25 46 0 5 -4 11 -9 14 -5 3 1 -31 13 -77z"/>
<path d="M799 2613 c-6 -16 -13 -83 -15 -151 -2 -67 -6 -128 -10 -134 -4 -7
-3 -8 4 -4 8 4 11 -18 10 -76 -1 -82 -1 -82 -13 -43 -12 36 -13 26 -11 -103 0
-78 2 -138 4 -132 6 17 23 11 21 -7 -4 -28 11 -115 27 -156 8 -20 14 -55 14
-77 0 -27 17 -74 56 -154 65 -135 120 -214 192 -274 28 -23 53 -53 55 -65 4
-18 4 -17 6 6 1 32 8 33 41 7 14 -11 30 -20 37 -20 6 0 19 -7 27 -16 9 -8 16
-11 16 -7 0 18 -37 49 -104 88 -38 22 -90 64 -117 93 -58 63 -142 226 -159
309 -7 32 -26 110 -42 173 l-29 115 6 265 c5 169 3 274 -3 290 -7 19 -6 35 4
59 17 40 17 41 4 41 -6 0 -15 -12 -21 -27z"/>
<path d="M1925 2570 c9 -14 -33 -22 -54 -11 -14 8 -22 7 -32 -5 -7 -9 -21 -13
-34 -10 -12 3 -48 -1 -80 -9 -32 -9 -68 -16 -81 -17 -12 -1 -21 -5 -18 -9 2
-4 1 -15 -3 -26 -6 -16 -8 -16 -13 4 -4 17 -8 20 -20 13 -13 -9 -13 -12 3 -24
17 -13 68 -9 96 8 6 4 57 16 113 27 56 11 105 24 108 30 4 6 16 6 31 1 37 -14
132 -24 125 -14 -10 16 -76 43 -112 47 -19 2 -32 -1 -29 -5z"/>
<path d="M710 2539 c-1 -2 -9 -53 -19 -112 -10 -59 -14 -110 -9 -113 4 -3 8
-4 8 -2 9 55 26 224 24 227 -2 2 -4 2 -4 0z"/>
<path d="M1180 2465 c14 -17 13 -18 -5 -10 -39 16 -99 15 -133 -1 -26 -12 -36
-13 -42 -4 -5 9 -13 9 -27 1 -11 -5 -24 -7 -28 -3 -3 4 -5 0 -3 -8 2 -8 -5
-16 -17 -18 -20 -3 -51 -39 -42 -49 3 -2 14 4 24 14 11 10 26 20 34 22 33 10
139 17 201 14 41 -1 79 3 99 11 l33 14 -33 17 c-18 9 -30 12 -27 6 9 -14 0
-14 -27 1 -21 11 -21 10 -7 -7z"/>
<path d="M1737 2423 c-9 -2 -15 -8 -12 -13 3 -4 -17 -28 -45 -53 -27 -25 -50
-47 -50 -49 0 -6 145 -2 175 6 17 4 63 19 103 32 40 13 80 24 90 25 14 0 14 2
-3 9 -14 6 -16 9 -5 10 8 1 -10 10 -40 20 -51 18 -169 25 -213 13z m181 -16
c57 -8 50 -20 -8 -13 -30 3 -75 6 -100 7 -40 1 -42 2 -15 8 30 7 58 7 123 -2z
m-73 -34 c14 -18 9 -43 -7 -43 -6 0 -8 7 -4 15 3 8 1 15 -4 15 -6 0 -10 7 -10
15 0 20 10 19 25 -2z m-76 -40 c1 -9 -14 -13 -45 -13 -51 0 -51 10 0 41 29 18
31 18 38 1 3 -9 7 -23 7 -29z"/>
<path d="M1291 2378 c18 -15 24 -29 20 -40 -5 -15 -10 -15 -51 4 -79 36 -212
6 -295 -67 -29 -26 -30 -27 -5 -21 22 5 21 4 -5 -10 l-30 -15 35 7 c19 4 49 6
65 5 90 -6 135 -3 151 10 10 8 15 9 11 3 -4 -7 8 -8 41 -3 71 12 75 11 67 -8
-16 -42 -15 -47 4 -24 32 35 26 53 -26 81 -66 35 -143 32 -235 -8 -27 -12 -48
-19 -48 -17 0 10 89 55 108 55 11 0 24 5 28 11 11 18 93 5 152 -23 48 -23 52
-24 47 -7 -4 11 -2 19 4 19 6 0 11 -5 11 -12 0 -6 3 -8 6 -5 4 4 2 12 -4 19
-6 7 -10 15 -9 18 3 14 -21 38 -43 44 l-25 7 26 -23z m-52 -84 c18 -13 20 -18
10 -25 -27 -17 -49 -10 -49 16 0 29 7 31 39 9z m-134 -15 c4 -6 13 -8 19 -6 7
3 19 1 27 -5 10 -7 5 -8 -18 -5 -18 2 -34 -1 -36 -6 -2 -6 -15 -7 -31 -3 -27
7 -27 8 -10 21 23 17 40 19 49 4z"/>
<path d="M1596 2383 c-4 -9 1 -23 12 -33 18 -17 19 -17 31 2 10 16 9 19 -6 16
-12 -2 -17 2 -15 15 4 22 -14 22 -22 0z"/>
<path d="M2385 2330 c11 -66 26 -85 21 -26 -2 26 -10 53 -16 60 -9 8 -10 1 -5
-34z"/>
<path d="M672 2278 c-1 -22 -12 -72 -19 -88 -11 -26 -11 -40 -2 -40 5 0 9 -14
9 -32 0 -30 -1 -31 -15 -12 -8 10 -15 37 -15 58 0 22 -2 37 -5 35 -9 -10 -12
-100 -3 -105 5 -3 5 -11 -1 -18 -6 -7 -10 -37 -10 -67 1 -57 -5 -163 -17 -282
-4 -39 -3 -69 0 -65 12 11 34 131 31 169 -2 20 1 42 6 50 7 11 9 10 10 -6 0
-11 3 -14 6 -7 3 7 -1 20 -8 28 -11 13 -9 19 11 34 22 17 23 19 7 25 -21 9
-23 25 -2 25 11 0 15 14 16 58 3 121 8 207 14 229 3 13 2 23 -3 23 -5 0 -9 -6
-10 -12z"/>
<path d="M553 2228 c-30 -39 -24 -50 11 -23 14 11 17 18 10 25 -8 8 -14 7 -21
-2z"/>
<path d="M1042 2168 c-4 -3 -16 -9 -27 -12 -11 -3 9 -4 45 -1 93 6 136 23 52
21 -34 0 -66 -4 -70 -8z"/>
<path d="M2527 2105 c3 -38 10 -90 14 -115 6 -33 7 -23 3 35 -3 44 -9 96 -14
115 -6 25 -7 15 -3 -35z"/>
<path d="M717 2073 c-4 -3 -7 -36 -7 -71 0 -83 7 -77 13 11 5 69 5 72 -6 60z"/>
<path d="M1268 2048 c-9 -7 -29 -51 -44 -98 -16 -47 -33 -88 -39 -92 -6 -5 -5
-8 3 -8 7 0 10 -5 6 -11 -4 -7 3 -6 17 2 13 7 27 12 31 11 13 -3 28 60 17 74
-8 10 -8 22 1 46 16 45 29 88 26 88 -1 0 -9 -6 -18 -12z"/>
<path d="M1799 1998 c39 -56 80 -94 110 -103 16 -5 21 -4 17 4 -4 6 -14 11
-23 11 -9 0 -14 3 -11 6 5 5 -109 124 -119 124 -2 0 10 -19 26 -42z"/>
<path d="M1573 1948 c-24 -12 -43 -25 -43 -30 0 -13 17 -9 30 7 8 10 30 15 60
15 55 0 82 8 74 21 -10 16 -78 9 -121 -13z"/>
<path d="M1300 1922 c0 -9 44 -32 61 -32 6 0 7 5 4 10 -3 6 2 10 12 10 15 0
16 2 3 10 -18 12 -80 13 -80 2z"/>
<path d="M1410 1890 c0 -13 60 -13 80 0 11 7 2 10 -32 10 -27 0 -48 -4 -48
-10z"/>
<path d="M2551 1889 c-2 -33 12 -109 20 -109 4 0 5 17 2 38 -8 49 -21 91 -22
71z"/>
<path d="M1934 1847 c39 -33 39 -33 38 -107 0 -67 1 -71 9 -35 24 107 24 110
-12 137 -53 39 -79 43 -35 5z"/>
<path d="M2618 1865 c-3 -6 -2 -28 2 -50 5 -22 16 -76 25 -120 9 -44 19 -82
21 -84 7 -7 -3 76 -17 139 -6 30 -14 71 -18 90 -4 19 -9 30 -13 25z"/>
<path d="M1436 1771 c-3 -4 -19 -11 -35 -14 -16 -3 -41 -17 -56 -30 -24 -20
-26 -25 -12 -30 11 -4 17 -1 17 8 0 8 28 28 63 44 34 16 54 30 45 30 -9 1 -19
-3 -22 -8z"/>
<path d="M1802 1761 c-23 -14 14 -36 41 -24 13 6 35 9 50 6 29 -6 38 11 11 21
-23 9 -87 7 -102 -3z"/>
<path d="M1685 1743 c-40 -6 -126 -31 -145 -43 -8 -5 -11 -12 -7 -17 5 -4 11
-3 15 3 10 16 84 36 140 38 12 1 22 4 22 8 0 4 10 9 23 11 17 3 18 4 2 4 -11
0 -33 -2 -50 -4z"/>
<path d="M1410 1690 c-12 -8 -11 -10 7 -10 12 0 24 -6 26 -12 3 -8 6 -7 6 4 1
11 12 18 34 21 26 3 23 4 -13 5 -25 1 -52 -3 -60 -8z"/>
<path d="M1664 1680 c-39 -17 -71 -45 -42 -36 7 3 26 7 41 10 17 4 25 11 21
18 -5 8 -2 9 10 5 9 -4 14 -3 11 2 -3 5 3 12 12 14 12 3 13 5 3 5 -8 0 -34 -8
-56 -18z"/>
<path d="M1215 1662 c-3 -7 0 -22 5 -32 6 -10 10 -28 10 -39 0 -26 21 -71 33
-71 5 0 6 8 2 18 -4 9 -10 36 -12 59 -6 45 -5 45 61 55 11 2 21 9 24 16 6 19
-116 12 -123 -6z"/>
<path d="M1790 1661 c0 -10 -39 -27 -52 -23 -5 1 -8 -8 -8 -19 0 -19 2 -20 18
-8 9 8 19 17 22 20 3 3 16 13 30 22 19 13 21 17 7 17 -9 0 -17 -4 -17 -9z"/>
<path d="M656 1579 c-3 -22 -2 -48 3 -57 8 -13 10 -2 11 41 0 31 -2 57 -4 57
-2 0 -6 -18 -10 -41z"/>
<path d="M1338 1608 c6 -8 8 -18 4 -23 -4 -4 3 -4 16 -1 15 5 22 3 22 -6 0
-15 74 -39 113 -37 14 1 6 6 -22 15 -25 8 -67 26 -95 40 -28 15 -45 20 -38 12z"/>
<path d="M2626 1604 c-9 -24 -7 -54 4 -54 5 0 7 -22 4 -52 -4 -39 -3 -49 5
-38 6 8 11 10 11 5 0 -6 -5 -16 -11 -22 -7 -7 -8 -17 -3 -25 11 -16 11 -17 14
-75 l3 -48 7 40 c9 48 10 46 16 -25 3 -33 11 -58 20 -63 8 -5 13 -22 13 -40
l-1 -32 -7 30 c-10 48 -20 6 -11 -46 5 -24 8 -44 8 -44 2 0 12 -36 15 -55 3
-14 4 34 2 105 -2 123 -20 229 -46 261 -5 6 -6 13 -3 16 3 3 -2 32 -11 64 -9
33 -16 71 -16 87 1 30 -4 35 -13 11z"/>
<path d="M2568 1575 c-4 -4 -3 -17 1 -29 5 -11 6 -55 4 -96 -6 -91 2 -91 10 0
6 67 -3 137 -15 125z"/>
<path d="M2755 1528 c30 -16 95 -80 95 -94 0 -17 108 -106 114 -95 4 5 2 12
-4 16 -5 3 -10 16 -10 29 0 26 -17 46 -40 46 -9 0 -31 15 -48 33 -46 47 -88
77 -109 77 -17 -1 -16 -1 2 -12z"/>
<path d="M2678 1514 c-7 -6 -3 -21 12 -59 38 -94 65 -218 80 -362 7 -67 10
-128 7 -136 -3 -7 -1 -20 4 -28 18 -28 9 190 -12 299 -30 158 -36 182 -54 232
-18 49 -28 64 -37 54z"/>
<path d="M658 1482 c10 -7 12 -39 8 -138 -3 -89 -2 -124 5 -111 12 21 16 227
5 245 -4 7 -13 12 -19 12 -9 0 -8 -3 1 -8z"/>
<path d="M2603 1350 c0 -36 2 -50 4 -32 2 17 2 47 0 65 -2 17 -4 3 -4 -33z"/>
<path d="M725 1388 c-8 -27 -16 -122 -10 -116 7 7 24 128 18 128 -2 0 -5 -6
-8 -12z"/>
<path d="M2100 1334 c-113 -53 -248 -96 -340 -109 -25 -4 -52 -11 -60 -16 -25
-15 74 0 143 21 35 11 73 18 85 15 12 -2 22 1 22 7 0 6 3 8 7 5 3 -4 11 -3 17
2 6 4 34 16 61 25 47 15 151 76 130 76 -5 0 -35 -12 -65 -26z"/>
<path d="M2989 1318 c-6 -17 -4 -80 2 -84 5 -3 9 15 9 40 0 25 -2 46 -5 46 -3
0 -5 -1 -6 -2z"/>
<path d="M2551 1242 c1 -26 -1 -54 -5 -60 -4 -7 -3 -18 2 -25 6 -7 12 -25 15
-42 2 -16 5 16 6 73 0 67 -3 102 -10 102 -6 0 -9 -19 -8 -48z"/>
<path d="M2653 1238 c0 -27 4 -54 9 -60 10 -17 9 49 -2 82 -7 20 -8 15 -7 -22z"/>
<path d="M641 1220 c-10 -153 -10 -204 -1 -190 5 8 10 28 10 43 0 20 4 26 13
21 9 -6 9 -5 0 7 -7 8 -14 48 -16 89 -2 52 -4 61 -6 30z"/>
<path d="M2613 1185 c0 -44 2 -61 4 -37 2 23 2 59 0 80 -2 20 -4 1 -4 -43z"/>
<path d="M1133 1140 c0 -41 2 -58 4 -37 2 20 2 54 0 75 -2 20 -4 3 -4 -38z"/>
<path d="M1541 1190 c29 -8 126 -6 136 4 4 3 -32 6 -78 5 -58 0 -76 -3 -58 -9z"/>
<path d="M2405 1081 c-4 -19 -11 -28 -17 -25 -8 5 -9 -5 -5 -30 3 -20 3 -60 0
-89 -6 -44 -8 -48 -15 -27 -4 16 -5 9 -2 -19 5 -31 3 -42 -5 -36 -8 5 -10 -1
-5 -21 5 -19 4 -25 -5 -20 -7 5 -11 -2 -12 -21 0 -15 -2 -45 -4 -65 -2 -21 -3
-38 -1 -38 13 0 92 407 82 418 -2 2 -7 -10 -11 -27z"/>
<path d="M2670 990 c0 -25 -4 -61 -10 -79 -6 -24 -6 -31 1 -24 14 14 29 115
18 133 -6 10 -8 0 -9 -30z"/>
<path d="M2701 990 c-1 -14 -10 -58 -20 -97 -11 -40 -15 -71 -11 -68 11 7 42
152 37 173 -3 11 -5 9 -6 -8z"/>
<path d="M2296 968 c-11 -72 -14 -153 -5 -131 10 27 23 163 15 163 -3 0 -7
-15 -10 -32z"/>
<path d="M788 942 c-2 -15 -1 -38 3 -52 5 -18 7 -10 8 28 1 56 -4 69 -11 24z"/>
<path d="M2325 900 c-4 -28 -5 -53 -2 -56 2 -3 7 19 11 47 4 28 5 53 3 56 -3
2 -8 -19 -12 -47z"/>
<path d="M826 879 c-4 -33 -5 -63 -3 -66 3 -2 8 23 12 57 4 34 5 63 2 66 -2 3
-7 -23 -11 -57z"/>
<path d="M2616 885 c4 -8 0 -23 -7 -33 -7 -9 -9 -14 -5 -10 5 4 15 3 22 -3 9
-7 14 -6 20 2 4 7 2 15 -4 17 -7 2 -12 10 -12 17 0 8 -4 17 -10 20 -6 3 -7 -1
-4 -10z"/>
<path d="M47 858 c13 -12 25 -19 29 -15 10 10 -16 37 -34 37 -13 0 -12 -4 5
-22z"/>
<path d="M612 795 c-2 -47 1 -75 8 -75 6 0 10 29 10 75 0 41 -4 75 -8 75 -4 0
-9 -34 -10 -75z"/>
<path d="M2307 793 c-3 -21 -8 -47 -12 -58 -6 -14 -5 -17 2 -10 13 12 33 105
23 105 -4 0 -10 -17 -13 -37z"/>
<path d="M1020 759 c0 -11 -4 -18 -9 -15 -14 9 -43 -137 -45 -226 -1 -27 -4
-48 -8 -48 -4 0 -10 -21 -14 -47 -4 -26 -13 -53 -20 -61 -8 -7 -14 -21 -14
-30 1 -13 5 -10 16 8 l15 25 -5 -25 c-3 -14 -6 -36 -6 -49 0 -17 -4 -22 -16
-17 -8 3 -12 2 -9 -4 3 -6 2 -10 -3 -10 -18 0 -5 -45 14 -48 10 -2 23 -8 29
-13 17 -16 30 -9 42 21 19 49 29 34 29 -40 0 -39 4 -74 11 -81 8 -8 11 -3 10
22 -2 28 1 33 16 31 15 -3 16 0 5 17 -7 12 -15 16 -19 10 -4 -6 -9 -4 -13 7
-4 10 0 24 10 36 19 20 18 20 -11 36 -23 12 -47 -1 -58 -31 -4 -10 -13 -17
-20 -14 -15 5 -11 46 7 66 12 14 12 18 0 29 -12 11 -12 16 2 37 9 14 20 23 24
20 4 -2 5 7 2 20 -2 14 -1 33 3 42 4 10 8 39 7 66 0 26 4 47 9 47 5 0 9 9 9
20 0 11 -4 20 -10 20 -5 0 -10 7 -10 16 0 8 5 12 10 9 6 -3 13 2 17 11 4 10 2
19 -5 22 -17 5 -15 22 3 22 9 0 20 -10 25 -22 6 -17 9 -18 9 -6 1 9 -6 24 -15
33 -14 13 -15 24 -7 66 6 27 6 49 2 49 -5 0 -9 -9 -9 -21z"/>
<path d="M2441 738 c-7 -24 -15 -49 -18 -57 -3 -8 -1 -11 4 -8 12 8 38 95 31
103 -3 2 -11 -15 -17 -38z"/>
<path d="M2821 733 c-11 -16 -21 -22 -21 -15 0 7 -4 10 -10 7 -5 -3 -10 -2
-10 4 0 14 -32 2 -47 -17 -8 -10 -16 -12 -25 -5 -7 5 -20 9 -28 9 -15 -1 -16
-5 -19 -47 0 -11 -5 -17 -11 -14 -8 5 -16 -39 -11 -67 0 -5 -7 -8 -16 -8 -15
0 -15 -1 1 -13 18 -13 18 -15 1 -48 -15 -28 -55 -167 -55 -188 0 -3 5 1 11 9
7 11 9 3 6 -30 -2 -29 2 -53 11 -68 13 -20 13 -25 1 -33 -8 -5 -19 -9 -25 -9
-12 0 -29 -49 -20 -58 3 -2 13 1 23 9 19 16 16 10 -24 -50 -12 -18 -20 -37
-17 -42 9 -15 60 44 74 86 20 60 79 163 103 181 20 14 21 16 5 27 -15 12 -15
18 -2 67 8 30 14 68 14 85 0 56 35 70 91 36 l31 -19 -25 -23 -26 -22 21 -23
c19 -19 30 -21 78 -17 63 5 100 20 100 40 0 10 -6 12 -22 7 -13 -4 -43 -8 -68
-8 -42 -1 -45 1 -42 24 3 35 28 50 84 50 52 0 62 14 23 32 -18 8 -36 8 -71 -2
-50 -14 -56 -11 -89 45 -16 27 -74 4 -102 -40 -27 -41 -28 -45 -7 -45 12 0 14
-5 9 -17 -11 -26 -35 -134 -35 -163 -1 -34 -43 -115 -61 -115 -11 0 -13 13
-11 55 5 95 20 158 49 201 19 29 24 44 15 47 -17 5 -15 34 5 74 9 18 19 40 23
47 13 29 120 38 120 10 0 -5 6 -9 14 -9 8 0 14 10 14 23 0 12 3 32 7 45 10 31
-9 28 -34 -5z"/>
<path d="M813 680 c0 -32 3 -57 6 -56 10 7 13 116 3 116 -5 0 -9 -27 -9 -60z"/>
<path d="M510 716 c0 -7 -7 -19 -15 -26 -8 -7 -15 -22 -15 -34 1 -20 2 -20 15
4 l14 25 1 -34 c0 -19 2 -32 5 -29 9 9 12 108 3 108 -4 0 -8 -6 -8 -14z"/>
<path d="M898 696 c-2 -19 -1 -43 3 -53 5 -11 8 2 8 35 1 59 -5 69 -11 18z"/>
<path d="M708 714 c-5 -4 -8 -23 -7 -43 0 -34 1 -34 10 -11 11 27 8 66 -3 54z"/>
<path d="M613 695 c-3 -9 -3 -35 0 -57 3 -23 2 -65 -3 -92 -8 -46 -16 -131
-26 -253 -1 -23 -10 -63 -18 -88 -18 -53 -20 -79 -6 -70 14 9 13 2 -14 -59
-17 -38 -21 -56 -13 -59 7 -3 13 6 14 21 0 13 7 28 13 32 7 4 12 30 12 60 0
37 8 67 24 98 21 40 22 45 8 59 -9 9 -13 25 -10 37 20 80 35 211 35 291 -1 94
-4 109 -16 80z"/>
<path d="M340 690 c-30 -4 -47 -7 -37 -8 27 -3 15 -26 -19 -36 -71 -21 -80
-28 -99 -68 -11 -23 -27 -45 -35 -48 -8 -4 -33 -16 -55 -27 -22 -11 -52 -23
-68 -27 -15 -3 -27 -11 -27 -16 0 -11 64 -5 117 12 42 12 139 -8 148 -31 4
-11 -7 -28 -34 -52 -37 -33 -40 -39 -34 -72 4 -30 1 -43 -21 -71 l-26 -35 40
-11 c51 -14 74 -46 65 -93 -5 -25 -2 -42 10 -61 9 -14 14 -30 10 -36 -3 -5 1
-10 10 -10 24 0 30 28 11 49 -13 14 -16 28 -11 54 8 42 -5 72 -49 109 -25 21
-29 29 -18 39 6 7 12 31 12 52 0 29 8 48 30 74 40 45 39 78 -2 103 -18 11 -43
20 -56 20 l-23 0 23 43 c17 31 37 49 78 70 30 16 58 35 63 42 4 7 24 16 45 20
20 3 44 10 52 15 17 11 -10 11 -100 0z"/>
<path d="M752 635 c1 -69 1 -69 8 -20 4 28 3 59 -1 70 -5 12 -7 -6 -7 -50z"/>
<path d="M2210 658 c-20 -33 -24 -94 -6 -105 5 -4 6 4 3 19 -4 14 -1 33 7 44
13 18 27 74 19 74 -2 0 -12 -15 -23 -32z"/>
<path d="M130 667 c-25 -6 -38 -12 -30 -14 9 -2 40 3 70 11 63 17 28 19 -40 3z"/>
<path d="M2875 629 l-20 -21 40 6 c22 3 55 7 73 8 17 1 32 6 32 10 0 4 -15 8
-32 8 -18 0 -42 3 -53 6 -14 3 -28 -2 -40 -17z"/>
<path d="M83 610 c2 -8 9 -14 16 -12 7 1 19 -2 26 -8 7 -6 20 -7 30 -4 13 5
14 9 3 15 -10 7 -9 9 5 9 9 0 17 5 17 10 0 6 -22 9 -50 8 -40 -2 -50 -6 -47
-18z"/>
<path d="M726 608 c-3 -13 -7 -75 -10 -139 -3 -64 -10 -128 -15 -141 -5 -14
-6 -30 -2 -37 14 -22 35 103 37 222 2 115 -1 139 -10 95z"/>
<path d="M790 591 c0 -11 -3 -27 -7 -37 -4 -12 -3 -15 5 -10 7 4 12 17 13 29
1 20 2 20 9 -3 l8 -25 1 26 c1 15 -5 29 -14 33 -10 3 -15 -1 -15 -13z"/>
<path d="M2160 547 c0 -31 4 -47 13 -47 8 0 7 -4 -3 -10 -10 -6 -11 -10 -2
-10 6 0 12 -9 12 -20 0 -12 -7 -20 -16 -20 -11 0 -14 -5 -10 -16 7 -19 -11
-57 -25 -49 -5 4 -9 -5 -9 -19 0 -15 -8 -31 -20 -38 -11 -7 -20 -18 -20 -25 0
-7 12 -1 26 12 15 14 30 22 35 19 10 -6 0 -34 -12 -34 -5 0 -9 -10 -9 -22 0
-12 -12 -34 -26 -49 -21 -22 -24 -30 -15 -47 7 -12 7 -23 2 -26 -5 -4 -11 -3
-14 1 -2 5 -2 3 -1 -4 2 -6 -11 -26 -29 -43 -18 -17 -33 -35 -33 -41 -1 -5 -2
-13 -3 -18 0 -5 -8 -17 -17 -25 -13 -14 -13 -16 0 -16 8 0 18 10 21 22 4 11
25 38 47 60 21 21 36 38 32 38 -3 0 -1 7 6 15 6 8 9 19 6 24 -4 5 -2 12 4 16
6 4 7 12 4 18 -4 7 -4 9 0 5 5 -4 36 30 69 75 34 45 60 82 57 83 -3 1 4 12 14
25 11 13 6 10 -11 -7 -17 -17 -37 -44 -46 -60 -8 -16 -25 -38 -37 -49 l-23
-20 17 33 c10 19 15 36 13 39 -3 3 8 26 24 51 16 26 25 48 19 50 -5 2 -10 8
-10 13 0 6 5 7 10 4 6 -3 10 0 10 9 0 8 3 23 7 33 6 16 5 17 -12 3 -17 -14
-18 -14 -7 7 8 14 9 24 2 28 -5 3 -10 14 -10 23 0 9 -7 26 -15 36 -14 18 -15
16 -15 -27z"/>
<path d="M479 548 c0 -2 -3 -16 -5 -32 -3 -16 -9 -37 -14 -46 -6 -11 -2 -23
12 -40 l20 -25 -4 26 c-3 14 1 31 9 37 7 7 13 18 13 24 0 7 -7 3 -15 -8 -17
-22 -19 -12 -6 34 6 20 6 32 0 32 -5 0 -9 -1 -10 -2z"/>
<path d="M2129 510 c-2 -19 -1 -48 2 -65 5 -24 7 -26 8 -7 0 13 5 21 11 17 6
-4 6 5 0 22 -5 15 -11 37 -13 48 -2 13 -5 7 -8 -15z"/>
<path d="M682 475 c-1 -16 -5 -41 -8 -55 -5 -22 -4 -23 6 -7 6 9 9 34 7 55 -3
32 -4 33 -5 7z"/>
<path d="M2078 448 c-21 -37 -24 -51 -19 -98 l7 -55 6 40 c3 22 2 44 -3 49 -9
10 18 69 29 62 4 -2 9 6 10 20 3 33 -2 30 -30 -18z"/>
<path d="M618 380 c-1 -27 0 -59 3 -72 5 -20 6 -19 12 11 10 47 9 99 -2 105
-5 3 -11 -16 -13 -44z"/>
<path d="M2090 411 c0 -11 5 -23 10 -26 6 -3 10 -2 10 4 0 5 3 16 6 25 4 11 1
16 -10 16 -9 0 -16 -8 -16 -19z"/>
<path d="M868 395 c-3 -6 -8 -30 -12 -55 l-5 -45 14 45 c14 42 16 76 3 55z"/>
<path d="M2785 364 l-40 -23 31 2 c21 1 34 9 41 25 6 12 10 22 10 21 -1 0 -20
-12 -42 -25z"/>
<path d="M2029 353 c-1 -5 0 -25 1 -47 1 -28 -2 -37 -12 -34 -7 3 -12 12 -10
22 4 22 -5 20 -19 -5 -8 -15 -8 -19 0 -15 12 8 14 -20 3 -44 -10 -22 -36 -25
-28 -3 6 14 5 15 -5 6 -9 -10 -10 -15 0 -27 9 -11 9 -22 -5 -53 -19 -44 -31
-28 -15 20 l11 32 -20 -24 c-14 -16 -18 -31 -14 -45 9 -29 10 -30 31 -21 10 5
21 8 25 7 4 -1 13 8 19 21 11 20 11 21 -4 8 -15 -12 -17 -11 -17 5 0 11 5 26
10 34 8 13 10 12 10 -2 0 -10 4 -18 8 -18 4 0 7 12 6 28 0 15 1 35 4 45 4 16
6 16 22 2 15 -14 18 -13 35 5 10 11 13 20 7 20 -6 0 -14 -4 -17 -10 -14 -23
-22 -7 -15 27 5 22 5 42 0 49 -6 6 -7 14 -3 17 3 4 3 7 0 7 -4 0 -7 -3 -8 -7z"/>
<path d="M488 309 c-10 -17 -18 -38 -18 -47 0 -9 9 1 20 23 24 48 22 67 -2 24z"/>
<path d="M64 315 c-21 -16 -21 -17 21 -20 28 -1 44 9 45 28 0 13 -45 8 -66 -8z"/>
<path d="M432 280 c-12 -29 -20 -55 -18 -57 6 -7 47 89 43 100 -2 6 -13 -14
-25 -43z"/>
<path d="M2442 272 c-17 -45 -21 -85 -13 -129 6 -32 5 -46 -6 -55 -20 -16 -13
-82 9 -86 16 -3 18 7 16 110 -1 111 5 157 24 169 5 3 3 9 -5 12 -10 4 -19 -3
-25 -21z"/>
<path d="M2546 273 c-13 -47 -18 -98 -8 -88 6 6 13 31 16 58 6 47 2 62 -8 30z"/>
<path d="M1090 271 c-24 -7 -24 -7 8 -14 23 -5 32 -12 32 -26 0 -11 6 -21 13
-24 9 -3 8 -8 -3 -22 -14 -17 -14 -18 8 -6 12 6 27 9 34 5 6 -4 9 -1 6 7 -3 8
-10 13 -16 12 -5 -1 -16 4 -22 12 -10 12 -9 15 6 16 14 0 15 2 4 6 -8 4 -21
14 -30 23 -10 12 -23 15 -40 11z"/>
<path d="M2507 263 c-11 -21 -16 -64 -9 -82 6 -17 10 -10 18 34 9 48 4 71 -9
48z"/>
<path d="M2863 240 c-1 -11 4 -20 10 -20 7 0 18 9 25 20 11 18 10 20 -11 20
-16 0 -23 -6 -24 -20z"/>
<path d="M692 225 c-15 -33 -15 -46 3 -69 12 -16 14 -13 12 38 -1 31 -2 56 -3
56 0 0 -6 -11 -12 -25z"/>
<path d="M0 229 c0 -5 15 -9 33 -10 17 0 41 -4 52 -8 19 -8 45 3 45 18 0 4
-29 8 -65 8 -36 1 -65 -3 -65 -8z"/>
<path d="M454 215 c-3 -14 -10 -25 -16 -25 -5 0 -6 -4 -3 -10 3 -5 2 -10 -4
-10 -5 0 -28 -32 -50 -70 -39 -68 -39 -91 0 -26 10 17 19 24 19 16 0 -19 55
86 64 123 3 15 4 27 1 27 -2 0 -7 -11 -11 -25z"/>
<path d="M598 197 c-5 -10 -8 -40 -7 -65 l1 -47 9 34 c12 40 9 107 -3 78z"/>
<path d="M2981 166 c-7 -8 -29 -19 -50 -23 -46 -9 -51 -10 -79 -11 -14 -1 -27
-12 -34 -29 -6 -16 -28 -45 -47 -65 l-35 -38 34 0 c18 0 31 3 27 6 -11 12 64
94 87 94 41 0 111 27 114 44 6 28 -3 39 -17 22z"/>
<path d="M1100 150 c0 -5 7 -10 15 -10 9 0 22 -14 29 -31 7 -17 16 -27 20 -21
3 6 1 14 -5 17 -5 4 -8 13 -5 20 2 7 -7 18 -20 24 -31 14 -34 14 -34 1z"/>
<path d="M2527 139 c-3 -11 -10 -18 -16 -14 -7 3 -11 -2 -11 -14 0 -29 26 -16
35 16 3 14 4 27 2 30 -3 2 -7 -6 -10 -18z"/>
<path d="M903 135 c0 -8 4 -12 9 -9 14 9 9 -7 -13 -38 -12 -16 -19 -31 -17
-34 3 -2 10 7 18 20 10 20 20 25 51 24 21 0 37 -5 36 -10 -1 -6 6 -12 16 -13
9 -2 17 0 17 4 0 13 -24 31 -42 31 -10 0 -18 4 -18 9 0 5 7 8 16 7 9 0 19 4
21 11 6 17 -37 4 -44 -13 -8 -21 -23 -17 -23 6 0 11 -6 20 -13 20 -8 0 -14 -7
-14 -15z"/>
<path d="M445 108 c-9 -40 6 -85 18 -53 4 8 2 15 -3 15 -6 0 -10 9 -10 21 0
11 4 17 10 14 6 -3 7 1 4 9 -8 22 -13 20 -19 -6z"/>
<path d="M674 108 c0 -13 -6 -42 -11 -65 -6 -24 -7 -43 -3 -43 4 0 13 21 20
48 7 26 14 55 17 65 2 10 -1 17 -9 17 -7 0 -13 -10 -14 -22z"/>
<path d="M771 80 c-23 -37 -29 -56 -22 -63 8 -8 11 -6 11 6 0 9 4 17 8 17 4 0
14 16 21 36 10 27 16 33 22 23 6 -10 9 -10 9 -2 0 7 7 10 15 7 8 -4 15 -2 15
4 0 6 -8 9 -17 8 -10 -2 -21 1 -24 6 -3 5 -21 -14 -38 -42z"/>
<path d="M1070 108 c0 -7 9 -19 20 -26 18 -11 20 -10 16 10 -3 24 -36 39 -36
16z"/>
<path d="M1180 85 c0 -8 0 -18 1 -21 0 -4 -5 -11 -13 -15 -10 -7 -9 -9 4 -9 9
0 21 13 27 30 8 24 7 30 -5 30 -7 0 -14 -7 -14 -15z"/>
<path d="M1845 80 c22 -24 26 -25 18 -3 -4 11 -3 14 5 9 7 -4 12 -16 12 -26 0
-21 31 -21 38 0 3 9 -1 11 -11 7 -10 -4 -17 1 -20 14 -4 13 -14 19 -33 19 -26
0 -27 0 -9 -20z"/>
<path d="M2275 80 c8 -13 -5 -61 -16 -54 -5 3 -9 1 -9 -5 0 -25 19 -18 29 11
14 39 14 58 0 58 -5 0 -8 -4 -4 -10z"/>
<path d="M911 40 c-26 -33 -29 -40 -14 -40 15 1 59 68 49 77 -1 2 -17 -15 -35
-37z"/>
<path d="M1121 67 c-15 -19 -42 -22 -57 -7 -11 11 -39 -4 -31 -17 7 -11 93
-11 103 0 3 3 4 13 2 23 -3 16 -4 16 -17 1z"/>
<path d="M593 58 c-6 -7 -16 -23 -22 -35 -10 -19 -9 -23 3 -23 8 0 19 14 25
32 12 34 9 46 -6 26z"/>
<path d="M2090 55 c-7 -8 -15 -13 -19 -11 -3 2 -20 -7 -36 -20 l-30 -24 26 0
c25 0 89 54 77 65 -3 3 -11 -1 -18 -10z"/>
<path d="M365 30 c-21 -22 -24 -30 -13 -30 17 0 31 15 41 43 9 23 5 22 -28
-13z"/>
<path d="M2512 14 c-11 -12 -4 -14 45 -14 59 1 58 12 -2 23 -19 3 -35 0 -43
-9z"/>
</g>
</svg>
